<svg width="476" height="146" viewBox="0 0 476 146" fill="none" xmlns="http://www.w3.org/2000/svg">
<path d="M50.176 22.32H56.512L66.112 46.512L75.808 22.32H82.24L70.336 51.408L83.392 82.224L108.064 21.84H115.36L86.464 90H80.512L66.208 56.304L51.808 90H45.952L17.152 21.84H24.352L49.12 82.224L62.08 51.408L50.176 22.32Z" fill="#46C849"/>
<path d="M124.95 90V21.84H131.67V90H124.95ZM155.483 34.224V90H148.763V21.84H154.331L199.067 78.672V21.936H205.787V90H199.547L155.483 34.224ZM222.919 90V21.84H246.055C253.287 21.84 259.303 23.376 264.103 26.448C268.967 29.456 272.615 33.552 275.047 38.736C277.479 43.856 278.695 49.552 278.695 55.824C278.695 62.736 277.351 68.752 274.663 73.872C272.039 78.992 268.263 82.96 263.335 85.776C258.471 88.592 252.711 90 246.055 90H222.919ZM271.975 55.824C271.975 50.384 270.951 45.552 268.903 41.328C266.919 37.104 264.007 33.808 260.167 31.44C256.327 29.008 251.623 27.792 246.055 27.792H229.639V84.048H246.055C251.687 84.048 256.423 82.8 260.263 80.304C264.103 77.808 267.015 74.448 268.999 70.224C270.983 65.936 271.975 61.136 271.975 55.824ZM319 90.48C314.2 90.48 309.848 89.52 305.944 87.6C302.04 85.68 298.68 83.088 295.864 79.824C293.048 76.496 290.872 72.784 289.336 68.688C287.8 64.528 287.032 60.272 287.032 55.92C287.032 51.376 287.832 47.056 289.432 42.96C291.032 38.8 293.272 35.12 296.152 31.92C299.096 28.656 302.52 26.096 306.424 24.24C310.328 22.32 314.552 21.36 319.096 21.36C323.896 21.36 328.248 22.352 332.152 24.336C336.056 26.32 339.384 28.976 342.136 32.304C344.952 35.632 347.128 39.344 348.664 43.44C350.2 47.536 350.968 51.728 350.968 56.016C350.968 60.56 350.168 64.912 348.568 69.072C346.968 73.168 344.728 76.848 341.848 80.112C338.968 83.312 335.576 85.84 331.672 87.696C327.768 89.552 323.544 90.48 319 90.48ZM293.752 55.92C293.752 59.632 294.36 63.216 295.576 66.672C296.792 70.064 298.52 73.104 300.76 75.792C303 78.416 305.656 80.528 308.728 82.128C311.864 83.664 315.288 84.432 319 84.432C322.904 84.432 326.392 83.632 329.464 82.032C332.6 80.368 335.256 78.192 337.432 75.504C339.672 72.752 341.368 69.68 342.52 66.288C343.672 62.896 344.248 59.44 344.248 55.92C344.248 52.208 343.64 48.656 342.424 45.264C341.208 41.872 339.448 38.832 337.144 36.144C334.904 33.456 332.248 31.344 329.176 29.808C326.104 28.272 322.712 27.504 319 27.504C315.16 27.504 311.672 28.304 308.536 29.904C305.464 31.504 302.808 33.68 300.568 36.432C298.392 39.12 296.696 42.16 295.48 45.552C294.328 48.944 293.752 52.4 293.752 55.92ZM409.584 27.792H385.296V90H378.576V27.792H354.288V21.84H409.584V27.792ZM434.352 21.84H440.016L468.336 90H461.232L452.4 68.688H421.776L413.04 90H405.84L434.352 21.84ZM450.864 63.408L437.136 29.712L423.216 63.408H450.864Z" fill="white"/>
<path d="M66 111L123.158 137.25H8.84232L66 111Z" fill="#46C849"/>
</svg>
